<?xml version="1.0" encoding="UTF-8"?>
<!-- Generator: Adobe Illustrator 16.0.0, SVG Export Plug-In . SVG Version: 6.00 Build 0)  -->
<!DOCTYPE svg PUBLIC "-//W3C//DTD SVG 1.1//EN" "http://www.w3.org/Graphics/SVG/1.1/DTD/svg11.dtd">
<svg version="1.1" id="Ebene_1" xmlns="http://www.w3.org/2000/svg" xmlns:xlink="http://www.w3.org/1999/xlink" x="0px" y="0px" width="180px" height="90.14px" viewBox="0 0 180 90.14" enable-background="new 0 0 180 90.14" xml:space="preserve">
<g id="Ebene_x0020_1">
	<g id="_802961616">
		<polygon fill="#FECD1F" points="43.143,58.164 45.212,58.164 45.212,85.633 40.422,85.633 40.422,58.164   "/>
		<polygon fill="#E62F2E" points="43.143,30.583 45.212,30.583 45.212,58.164 40.422,58.164 40.422,30.583   "/>
		<path fill="#1D1D1E" d="M19.361,13.319c0.028-0.283,0.057-0.623,0.057-0.936c0-0.17,0-0.369,0-0.623    c2.721-0.029,5.13-2.014,5.13-4.281c0-1.133-0.765-2.012-1.19-2.521c0.113-0.029,0.198-0.057,0.284-0.086    C24.038,5.241,25.2,6.459,25.2,8.018C25.2,10.739,22.479,13.292,19.361,13.319z M16.611,3.852c-0.057-0.285-0.17-0.568-0.34-0.795    c0-0.283,0.113-0.566,0.567-0.34c-0.255,0.256-0.057,0.68-0.057,0.68s0.482-0.227,0.396-0.537    C17.915,3.03,17.376,4.022,16.611,3.852z M15.959,5.268c-0.085-0.424-0.283-0.822-0.567-1.162    c-0.227-0.283-0.624-0.623-1.162-0.623c-0.255,0-0.652,0.113-0.936,0.227c-0.085-0.17-0.283-0.596-0.283-0.793    c0-0.199,0.34-0.398,0.992-0.398c1.417,0,2.268,0.652,2.268,1.701C16.271,4.616,16.101,4.958,15.959,5.268z M19.616,23.524    c0.17,0,0.227,0.027,0.34,0.057c0.396,1.105,1.984,3.203,2.041,3.287l0.028,0.029l0,0c0.396-0.086,1.389-0.227,2.211-0.227l0,0    c0.113,0,0.198,0,0.255,0.057s0.085,0.17,0.085,0.283c0,0.227-0.085,0.566-0.198,0.709c-0.283-0.313-0.737-0.453-1.502-0.453    c-0.227,0-0.482,0.057-0.624,0.113h-0.057l-0.085,0.027l0.454,0.426c0.652,0.68,1.247,1.246,1.247,1.615    c0,0.256-0.227,0.539-0.454,0.68c-0.028-0.707-0.737-1.643-1.446-2.182l-0.057-0.029v0.256c0,0.17-0.028,0.396-0.028,0.68    c0,1.334-0.142,1.531-0.595,1.531c-0.085,0-0.17-0.027-0.255-0.027c0.255-0.342,0.368-0.766,0.368-1.504v-0.34v-0.283    c0-0.313,0.028-0.539,0.057-0.709v-0.113h-0.057c-0.227-0.027-0.624-0.084-0.936-0.084c-0.652,0-1.105,0.057-1.445,0.367    c-0.199-0.197-0.425-0.48-0.425-0.68c0-0.283,0.17-0.283,0.397-0.283c0.113,0,0.227,0,0.368,0.027    c0.284,0.029,0.737,0.113,1.616,0.113h0.028v-0.057c-0.227-0.65-0.851-1.559-1.814-2.777    C19.219,23.721,19.304,23.524,19.616,23.524z M11.14,26.811l-0.028,0.057h0.057c0.879,0,1.304-0.084,1.587-0.113    c0.142-0.027,0.255-0.027,0.369-0.027c0.227,0,0.397,0,0.397,0.283c0,0.199-0.199,0.482-0.425,0.68    c-0.312-0.311-0.766-0.367-1.417-0.367c-0.312,0-0.708,0.057-0.936,0.084h-0.028h-0.057l0.028,0.113    c0.028,0.17,0.057,0.396,0.057,0.709v0.283v0.34c0,0.738,0.085,1.162,0.34,1.504c-0.057,0-0.17,0.027-0.227,0.027    c-0.481,0-0.595-0.197-0.595-1.531c0-0.283-0.028-0.51-0.028-0.68l-0.028-0.256l-0.057,0.029c-0.68,0.539-1.389,1.475-1.446,2.182    c-0.198-0.141-0.425-0.424-0.425-0.68c0-0.369,0.567-0.936,1.247-1.615l0.369-0.369l0.057-0.057l-0.113-0.027    c-0.142-0.057-0.425-0.113-0.652-0.113c-0.737,0-1.219,0.141-1.502,0.453c-0.085-0.143-0.198-0.482-0.198-0.709    c0-0.113,0.028-0.227,0.085-0.283c0.085-0.057,0.17-0.057,0.255-0.057h0.028c0.822,0,1.814,0.141,2.183,0.227h0.028l0.028-0.029    c0.057-0.084,1.616-2.182,2.041-3.287c0.085-0.029,0.17-0.057,0.34-0.057c0.312,0,0.396,0.197,0.481,0.51    C11.962,25.252,11.367,26.161,11.14,26.811z M6.888,8.018c0-1.559,1.134-2.777,1.531-3.146c0.113,0.029,0.198,0.057,0.283,0.086    C8.277,5.467,7.54,6.346,7.54,7.479c0,2.297,2.438,4.281,5.216,4.281c-0.028,0.197-0.028,0.426-0.028,0.623    c0,0.34,0.028,0.652,0.057,0.936C9.638,13.319,6.888,10.768,6.888,8.018z M27.893,12.866c1.417,2.211,2.522,2.182,4.167,2.182    c-1.36-1.049-2.268-2.408-2.693-3.09l-2.579-4.109c-0.255-1.275-0.907-2.467-1.899-3.346c0.34-0.113,0.624-0.254,0.793-0.367    c-1.701,0-3.345-0.879-4.28-0.879c-0.567,0-0.963,0.367-0.963,0.822c0.057,0.537,0.595,1.049,1.559,1.049    c0.227,0,0.51-0.029,0.822-0.086c0.539,0.736,0.964,1.418,0.964,2.381c0,1.787-2.154,3.203-4.309,3.203    c-0.142,0-0.255,0-0.369-0.027c-0.198-0.426-0.851-1.191-0.851-2.041c0-1.418,0.936-2.58,0.936-3.998    c0-0.879-0.425-1.445-0.595-1.672c0.255-0.227,0.567-0.539,0.624-0.736c-0.17,0.057-0.34,0.057-0.595,0.057    c-1.049,0-1.899-0.256-2.721-0.256c-0.482,0-0.595,0.143-0.595,0.283c0,0.057,0,0.086,0,0.113c-0.17-0.057-0.34-0.113-0.539-0.141    c-0.227-0.057-0.482-0.086-0.766-0.086c-1.021,0-1.36,0.426-1.36,0.795c0,0.311,0.227,0.879,0.51,1.303    c0.397-0.197,0.85-0.34,1.077-0.34c0.539,0,0.992,0.51,1.247,1.105c-0.34,0.057-0.425,0.057-0.793,0.057    c-0.964,0-1.644-0.34-1.786-0.34c0,0-0.028,0-0.028,0.027c0,0.143,0.284,0.482,0.822,0.682c0.737,0.283,1.814,0.396,1.984,0.426    c0,0.027-0.17,0.367-0.397,0.424c-0.028,0.029-0.057,0.029-0.113,0C14.4,6.12,14.202,6.063,13.238,5.694    c-0.028,0-0.028,0-0.028,0.027c0,0.398,0.964,1.221,1.842,1.531c-0.737,0.936-1.644,1.9-2.069,3.346    c-0.142,0.027-0.255,0.027-0.368,0.027c-2.183,0-4.337-1.416-4.337-3.203c0-0.963,0.453-1.645,0.963-2.381    c0.312,0.057,0.624,0.086,0.822,0.086c0.992,0,1.531-0.512,1.559-1.049c0-0.455-0.369-0.822-0.964-0.822    c-0.907,0-2.58,0.879-4.252,0.879c0.17,0.113,0.454,0.254,0.766,0.367c-0.964,0.879-1.616,2.07-1.871,3.346l-2.58,4.109    C2.296,12.639,1.389,13.999,0,15.047c1.672,0,2.778,0.029,4.167-2.182l1.332-2.127c0.085,0.283,0.199,0.539,0.34,0.822    l-2.608,4.168c-0.425,0.709-1.332,2.041-2.721,3.09c1.672,0,2.778,0.057,4.167-2.184l2.268-3.6c0.17,0.17,0.34,0.369,0.51,0.539    L4.28,18.649c-0.425,0.707-1.332,2.041-2.721,3.09c1.672,0,2.778,0.057,4.167-2.184l3.118-4.961    c0.198,0.143,0.396,0.256,0.624,0.369L5.669,21.03c-0.425,0.68-1.333,2.012-2.693,3.09c1.644,0,2.75,0.027,4.167-2.184    l3.884-6.236c0.227,0.086,0.454,0.17,0.708,0.256l-4.394,7.029c-0.454,0.68-1.361,2.041-2.721,3.09    c1.644,0,2.75,0.029,4.167-2.182l4.677-7.514c0.057,0,0.114,0.029,0.142,0.029c0.142,0.396,0.227,0.793,0.227,1.162    c0,2.354-1.559,4.451-3.401,6.066c0.113,0.027,0.312,0.057,0.51,0.057c0.396,0,0.624-0.029,0.793-0.057    c-0.425,0.992-1.332,2.238-1.814,2.891c-0.595-0.084-1.502-0.17-2.069-0.17c-0.595,0-0.68,0.34-0.68,0.652    c0,0.566,0.255,0.992,0.567,1.248c0.113-0.285,0.34-0.652,1.445-0.652c0.028,0,0.057,0,0.114,0    c-0.312,0.367-1.333,1.189-1.333,1.842c0,0.453,0.482,1.105,1.105,1.105c-0.028-0.141-0.028-0.254-0.028-0.367    c0-0.539,0.482-1.164,0.879-1.617c0,0.143,0,0.113,0,0.283c0,1.275,0.113,1.871,0.935,1.871c0.397,0,0.652-0.227,0.766-0.283    c-0.539-0.482-0.567-0.879-0.567-1.588c0-0.197,0-0.367,0-0.623c0-0.17,0-0.369-0.028-0.539c0.312-0.027,0.425-0.027,0.652-0.027    c0,0,1.134-0.113,1.417,0.482c0.312-0.285,0.765-0.682,0.765-1.135c0-0.283-0.142-0.623-0.737-0.623    c-0.227,0-0.936,0.141-1.502,0.141c0.142-0.34,0.851-1.389,1.474-2.125c0.085,0.283,0.227,0.596,0.567,0.85    c0.028-0.482,0.312-2.012,1.077-2.891c0.085,0.596,0.198,1.219,0.198,2.523c0,3.174-0.765,5.527-2.381,5.951    c0.198,0.369,0.652,0.709,1.105,0.709c0.595,0,0.936-0.68,1.247-1.303c0.17,0.453,0.652,1.615,1.134,1.615    s0.936-1.162,1.105-1.615c0.34,0.623,0.652,1.303,1.248,1.303c0.482,0,0.907-0.34,1.134-0.709    c-1.616-0.424-2.381-2.777-2.381-5.951c0-1.305,0.114-1.928,0.199-2.523c0.765,0.879,1.049,2.408,1.077,2.891    c0.312-0.254,0.482-0.566,0.567-0.85c0.624,0.736,1.304,1.785,1.474,2.125c-0.595,0-1.304-0.141-1.531-0.141    c-0.595,0-0.737,0.34-0.737,0.623c0,0.453,0.454,0.85,0.794,1.135c0.255-0.596,1.417-0.482,1.417-0.482    c0.227,0,0.34,0,0.624,0.027c-0.028,0.17-0.028,0.369-0.028,0.539c0,0.256,0,0.426,0,0.623c0,0.709,0,1.105-0.539,1.588    c0.085,0.057,0.368,0.283,0.765,0.283c0.822,0,0.936-0.596,0.936-1.871c0-0.17,0-0.141-0.028-0.283    c0.425,0.453,0.907,1.078,0.907,1.617c0,0.113,0,0.227-0.057,0.367c0.652,0,1.134-0.652,1.134-1.105    c0-0.652-1.021-1.475-1.361-1.842c0.057,0,0.113,0,0.113,0c1.134,0,1.361,0.367,1.474,0.652c0.283-0.256,0.567-0.682,0.567-1.248    c0-0.313-0.085-0.652-0.68-0.652s-1.474,0.086-2.069,0.17c-0.482-0.652-1.417-1.898-1.843-2.891    c0.17,0.027,0.425,0.057,0.822,0.057c0.17,0,0.397-0.029,0.51-0.057c-1.871-1.615-3.402-3.713-3.402-6.066    c0-0.369,0.085-0.766,0.199-1.162c0.057,0,0.113-0.029,0.142-0.029l4.706,7.514c1.389,2.211,2.495,2.182,4.167,2.182    c-1.361-1.049-2.296-2.41-2.721-3.09l-4.394-7.029c0.227-0.086,0.454-0.17,0.709-0.256l3.883,6.236    c1.417,2.211,2.495,2.184,4.167,2.184c-1.389-1.078-2.268-2.41-2.721-3.09l-3.77-6.066c0.198-0.113,0.425-0.227,0.624-0.369    l3.09,4.961c1.417,2.24,2.522,2.184,4.167,2.184c-1.361-1.049-2.268-2.383-2.722-3.09l-3.175-5.074    c0.199-0.17,0.369-0.369,0.539-0.539l2.268,3.6c1.389,2.24,2.494,2.184,4.167,2.184c-1.389-1.049-2.296-2.381-2.722-3.09    l-2.636-4.168c0.142-0.283,0.283-0.539,0.368-0.822L27.893,12.866z"/>
		<polygon fill="#1D1D1E" points="45.212,3.256 45.212,30.723 43.143,30.723 40.422,30.723 40.422,3.256   "/>
		<path fill="#1D1D1E" d="M60.123,11.108c0-0.736-0.142-1.275-0.482-1.645c-0.312-0.34-0.822-0.539-1.559-0.539h-1.389v4.252h1.19    c0.794,0,1.333-0.113,1.672-0.367C59.924,12.497,60.123,11.93,60.123,11.108z M59.953,5.92c0-0.709-0.17-1.191-0.51-1.475    c-0.312-0.254-0.793-0.367-1.445-0.367h-1.304v3.826h1.361C59.329,7.905,59.953,7.252,59.953,5.92z M61.483,11.165    c0,1.135-0.283,1.955-0.851,2.438c-0.539,0.426-1.36,0.652-2.494,0.652h-2.75V3.03h2.976c0.992,0,1.729,0.197,2.211,0.65    c0.454,0.426,0.709,1.135,0.709,2.156c0,0.707-0.142,1.246-0.369,1.615c-0.255,0.424-0.68,0.736-1.304,0.936    c0.708,0.17,1.219,0.48,1.502,0.963C61.342,9.776,61.483,10.372,61.483,11.165z"/>
		<path fill="#1D1D1E" d="M68.825,14.254h-1.219l-0.028-1.02c-0.454,0.764-1.134,1.133-1.956,1.133c-1.389,0-2.098-0.793-2.098-2.41    V6.43h1.219v4.99c0,0.65,0.057,1.105,0.17,1.359c0.17,0.455,0.539,0.682,1.077,0.682c1.021,0,1.531-0.766,1.531-2.297V6.43h1.247    v6.096C68.769,13.12,68.797,13.715,68.825,14.254z"/>
		<path fill="#1D1D1E" d="M76.337,14.254H75.09V9.237c0-0.652-0.028-1.133-0.142-1.361c-0.17-0.453-0.51-0.707-1.049-0.707    s-0.936,0.283-1.248,0.793c-0.227,0.453-0.34,0.963-0.34,1.588v4.705h-1.219V8.131c0-0.709-0.028-1.275-0.085-1.701h1.219v1.049    c0.425-0.822,1.105-1.219,2.041-1.219c1.361,0,2.069,0.795,2.069,2.438V14.254z"/>
		<path fill="#1D1D1E" d="M82.517,10.399c0-1.049-0.057-1.814-0.227-2.268c-0.198-0.652-0.624-0.992-1.247-0.992    s-1.021,0.34-1.247,1.021c-0.142,0.453-0.227,1.162-0.227,2.098c0,1.02,0.085,1.756,0.255,2.238    c0.227,0.652,0.624,0.965,1.162,0.965c0.68,0,1.105-0.313,1.332-0.965C82.46,12.071,82.517,11.364,82.517,10.399z M83.792,14.254    h-1.19l-0.028-0.906c-0.454,0.68-1.049,1.02-1.814,1.02c-1.02,0-1.701-0.453-2.069-1.361c-0.255-0.594-0.369-1.529-0.369-2.777    c0-1.189,0.142-2.098,0.425-2.693c0.368-0.85,1.021-1.275,1.956-1.275c0.794,0,1.389,0.283,1.786,0.908V3.03h1.247v9.75    C83.735,13.036,83.735,13.545,83.792,14.254z"/>
		<path fill="#1D1D1E" d="M89.83,9.663c0-0.766-0.057-1.275-0.142-1.588c-0.198-0.623-0.595-0.936-1.19-0.936    c-0.85,0-1.332,0.51-1.446,1.502c-0.057,0.369-0.057,0.709-0.057,1.021H89.83z M91.077,10.512h-4.082v0.51    c0,0.795,0.057,1.391,0.199,1.73c0.227,0.51,0.624,0.766,1.219,0.766c0.907,0,1.361-0.568,1.417-1.73h1.19    c-0.057,1.73-0.936,2.609-2.608,2.609c-1.077,0-1.843-0.369-2.239-1.105c-0.284-0.539-0.454-1.418-0.454-2.637    c0-1.389,0.142-2.381,0.397-3.006c0.396-0.936,1.19-1.389,2.381-1.389c1.134,0,1.872,0.396,2.239,1.219    c0.228,0.539,0.341,1.418,0.341,2.666V10.512z"/>
		<path fill="#1D1D1E" d="M97.37,12.1c0,1.531-0.822,2.268-2.466,2.268c-1.588,0-2.381-0.822-2.354-2.523h1.219    c0,0.17,0,0.313,0.029,0.455c0.057,0.793,0.453,1.219,1.133,1.219c0.795,0,1.191-0.398,1.191-1.219    c0-0.426-0.113-0.766-0.369-1.021c-0.17-0.17-0.51-0.396-1.049-0.68c-0.736-0.396-1.189-0.682-1.389-0.879    c-0.396-0.369-0.596-0.822-0.596-1.445c0-0.652,0.228-1.162,0.681-1.531c0.397-0.34,0.964-0.482,1.645-0.482    c0.821,0,1.389,0.17,1.729,0.566c0.34,0.369,0.51,0.936,0.538,1.73h-1.22c0-0.965-0.367-1.445-1.105-1.445    c-0.311,0-0.566,0.084-0.765,0.283c-0.17,0.197-0.284,0.453-0.284,0.766c0,0.367,0.171,0.65,0.454,0.906    c0.171,0.143,0.538,0.369,1.105,0.68c0.624,0.342,1.077,0.652,1.304,0.879C97.172,11.022,97.37,11.504,97.37,12.1z"/>
		<path fill="#1D1D1E" d="M100.432,14.254h-1.219V6.43h1.219V14.254z M100.488,4.502h-1.332V3.17h1.332V4.502z"/>
		<path fill="#1D1D1E" d="M108,14.254h-1.247V9.237c0-0.652-0.028-1.133-0.142-1.361c-0.17-0.453-0.511-0.707-1.049-0.707    c-0.539,0-0.936,0.283-1.248,0.793c-0.227,0.453-0.34,0.963-0.34,1.588v4.705h-1.219V8.131c0-0.709-0.028-1.275-0.085-1.701h1.219    v1.049c0.425-0.822,1.105-1.219,2.041-1.219c1.36,0,2.069,0.795,2.069,2.438V14.254z"/>
		<path fill="#1D1D1E" d="M114.633,12.1c0,1.531-0.822,2.268-2.466,2.268c-1.587,0-2.382-0.822-2.353-2.523h1.219    c0,0.17,0.028,0.313,0.028,0.455c0.085,0.793,0.454,1.219,1.134,1.219c0.793,0,1.19-0.398,1.19-1.219    c0-0.426-0.113-0.766-0.368-1.021c-0.17-0.17-0.511-0.396-1.049-0.68c-0.737-0.396-1.191-0.682-1.389-0.879    c-0.397-0.369-0.596-0.822-0.596-1.445c0-0.652,0.227-1.162,0.68-1.531c0.397-0.34,0.965-0.482,1.645-0.482    c0.822,0,1.389,0.17,1.729,0.566c0.341,0.369,0.539,0.936,0.539,1.73h-1.219c0-0.965-0.369-1.445-1.105-1.445    c-0.313,0-0.566,0.084-0.766,0.283c-0.17,0.197-0.283,0.453-0.283,0.766c0,0.367,0.17,0.65,0.453,0.906    c0.17,0.143,0.539,0.369,1.105,0.68c0.624,0.342,1.078,0.652,1.305,0.879C114.435,11.022,114.633,11.504,114.633,12.1z"/>
		<path fill="#1D1D1E" d="M119.509,14.254c-0.397,0.029-0.681,0.057-0.907,0.057c-0.709,0-1.19-0.17-1.445-0.453    c-0.227-0.283-0.313-0.766-0.313-1.475V7.309h-1.162V6.43h1.162V4.985l1.219-0.539V6.43h1.39v0.879h-1.39v4.934    c0,0.424,0.057,0.736,0.17,0.877c0.143,0.143,0.369,0.229,0.709,0.229c0.057,0,0.256-0.029,0.567-0.057V14.254z"/>
		<path fill="#1D1D1E" d="M122.258,14.254h-1.219V6.43h1.219V14.254z M122.314,4.502h-1.332V3.17h1.332V4.502z"/>
		<path fill="#1D1D1E" d="M127.588,14.254c-0.369,0.029-0.681,0.057-0.879,0.057c-0.709,0-1.191-0.17-1.445-0.453    c-0.228-0.283-0.341-0.766-0.341-1.475V7.309h-1.162V6.43h1.162V4.985l1.247-0.539V6.43h1.389v0.879h-1.389v4.934    c0,0.424,0.057,0.736,0.17,0.877c0.113,0.143,0.369,0.229,0.709,0.229c0.057,0,0.227-0.029,0.539-0.057V14.254z"/>
		<path fill="#1D1D1E" d="M134.447,14.254h-1.219l-0.028-1.02c-0.481,0.764-1.134,1.133-1.984,1.133c-1.39,0-2.069-0.793-2.069-2.41    V6.43h1.219v4.99c0,0.65,0.057,1.105,0.142,1.359c0.198,0.455,0.539,0.682,1.106,0.682c1.02,0,1.529-0.766,1.529-2.297V6.43h1.248    v6.096C134.391,13.12,134.391,13.715,134.447,14.254z"/>
		<path fill="#1D1D1E" d="M139.72,14.254c-0.397,0.029-0.681,0.057-0.907,0.057c-0.709,0-1.19-0.17-1.445-0.453    c-0.199-0.283-0.313-0.766-0.313-1.475V7.309h-1.162V6.43h1.162V4.985l1.219-0.539V6.43h1.39v0.879h-1.39v4.934    c0,0.424,0.057,0.736,0.199,0.877c0.113,0.143,0.34,0.229,0.68,0.229c0.057,0,0.256-0.029,0.567-0.057V14.254z"/>
		<path fill="#1D1D1E" d="M58.195,20.405c-0.113,0-0.255,0-0.482,0c-0.397,0-0.652,0.143-0.794,0.426    c-0.085,0.17-0.113,0.51-0.113,0.936v1.135h1.333v0.906h-1.333v6.916h-1.219v-6.916h-1.162v-0.906h1.162v-0.852    c0-0.85,0.085-1.445,0.312-1.814c0.283-0.537,0.85-0.822,1.672-0.822c0.198,0,0.425,0.029,0.624,0.029V20.405z"/>
		<path fill="#1D1D1E" d="M65.027,30.723h-1.219l-0.028-0.992c-0.453,0.738-1.134,1.105-1.956,1.105    c-1.389,0-2.098-0.793-2.098-2.408v-5.527h1.219v4.988c0,0.652,0.057,1.105,0.17,1.361c0.17,0.453,0.539,0.68,1.077,0.68    c1.021,0,1.531-0.766,1.531-2.297v-4.732h1.248v6.094C64.97,29.618,64.999,30.186,65.027,30.723z"/>
		<path fill="#1D1D1E" d="M61.739,21.086h-1.163v-1.475h1.163V21.086z M64.148,21.086h-1.162v-1.475h1.162V21.086z"/>
		<path fill="#1D1D1E" d="M70.526,23.92c-0.113-0.027-0.198-0.027-0.255-0.027c-0.595,0-1.021,0.17-1.333,0.537    c-0.283,0.369-0.425,0.852-0.425,1.445v4.848h-1.247v-6.406c0-0.51-0.028-0.992-0.057-1.416h1.219v1.02    c0.425-0.793,1.077-1.191,1.984-1.191C70.498,22.729,70.526,23.127,70.526,23.92z"/>
		<path fill="#1D1D1E" d="M80.589,26.84l-1.644-6.094l-1.616,6.094H80.589z M83.055,30.723h-1.389l-0.793-2.834h-3.884l-0.793,2.834    h-1.304l3.289-11.225h1.616L83.055,30.723z"/>
		<path fill="#1D1D1E" d="M87.732,23.92c-0.114-0.027-0.199-0.027-0.255-0.027c-0.595,0-1.021,0.17-1.332,0.537    c-0.284,0.369-0.425,0.852-0.425,1.445v4.848h-1.247v-6.406c0-0.51-0.029-0.992-0.057-1.416h1.219v1.02    c0.425-0.793,1.077-1.191,1.984-1.191C87.704,22.729,87.732,23.127,87.732,23.92z"/>
		<polygon fill="#1D1D1E" points="92.977,30.723 88.583,30.723 88.583,29.731 91.645,23.807 88.753,23.807 88.753,22.901     92.948,22.901 92.948,23.864 89.887,29.788 92.977,29.788   "/>
		<path fill="#1D1D1E" d="M99.922,30.723h-1.22v-5.018c0-0.65-0.057-1.105-0.142-1.359c-0.17-0.453-0.539-0.682-1.077-0.682    s-0.936,0.256-1.219,0.766c-0.255,0.455-0.368,0.965-0.368,1.588v4.705h-1.219V24.6c0-0.68-0.029-1.246-0.057-1.699h1.219v1.076    c0.425-0.85,1.105-1.248,2.012-1.248c1.389,0,2.07,0.822,2.07,2.439V30.723z"/>
		<path fill="#1D1D1E" d="M106.044,26.131c0-0.736-0.057-1.275-0.17-1.588c-0.17-0.623-0.567-0.936-1.19-0.936    c-0.851,0-1.332,0.512-1.445,1.531c-0.029,0.34-0.057,0.68-0.057,0.992H106.044z M107.264,26.983h-4.082v0.51    c0,0.822,0.084,1.389,0.227,1.729c0.198,0.51,0.595,0.766,1.19,0.766c0.907,0,1.389-0.566,1.417-1.729h1.219    c-0.085,1.756-0.963,2.607-2.636,2.607c-1.077,0-1.814-0.369-2.239-1.105c-0.283-0.539-0.426-1.418-0.426-2.637    c0-1.389,0.113-2.381,0.369-2.977c0.425-0.963,1.219-1.418,2.409-1.418c1.105,0,1.843,0.398,2.211,1.248    c0.227,0.51,0.341,1.389,0.341,2.637V26.983z"/>
		<path fill="#1D1D1E" d="M110.467,30.723h-1.248v-7.822h1.248V30.723z M110.523,21h-1.361v-1.359h1.361V21z"/>
		<path fill="#1D1D1E" d="M121.379,30.723h-1.219v-5.271c0-0.566-0.057-0.965-0.17-1.191c-0.142-0.396-0.453-0.596-0.936-0.596    c-0.906,0-1.36,0.709-1.36,2.127v4.932h-1.247v-5.328c0-0.539-0.028-0.936-0.113-1.135c-0.143-0.396-0.453-0.596-0.936-0.596    s-0.822,0.229-1.077,0.682c-0.228,0.424-0.341,0.936-0.341,1.588v4.789h-1.219V24.26c0-0.482-0.027-0.936-0.057-1.359h1.219v1.02    c0.426-0.793,1.049-1.191,1.844-1.191c0.906,0,1.473,0.398,1.757,1.191c0.454-0.793,1.105-1.191,1.928-1.191    c0.708,0,1.219,0.229,1.53,0.682c0.256,0.426,0.396,1.076,0.396,1.984V30.723z"/>
		<path fill="#1D1D1E" d="M124.923,30.723h-1.219v-7.822h1.219V30.723z M124.979,21h-1.36v-1.359h1.36V21z"/>
		<path fill="#1D1D1E" d="M130.252,30.723c-0.369,0.029-0.68,0.057-0.907,0.057c-0.681,0-1.19-0.141-1.445-0.453    c-0.198-0.256-0.312-0.766-0.312-1.475v-5.045h-1.162v-0.906h1.162v-1.447l1.219-0.537v1.984h1.389v0.906h-1.389v4.904    c0,0.426,0.057,0.736,0.198,0.879c0.113,0.141,0.34,0.227,0.681,0.227c0.057,0,0.254-0.029,0.566-0.057V30.723z"/>
		<path fill="#1D1D1E" d="M134.816,30.723c-0.397,0.029-0.682,0.057-0.908,0.057c-0.708,0-1.189-0.141-1.445-0.453    c-0.198-0.256-0.312-0.766-0.312-1.475v-5.045h-1.163v-0.906h1.163v-1.447l1.219-0.537v1.984h1.389v0.906h-1.389v4.904    c0,0.426,0.057,0.736,0.198,0.879c0.113,0.141,0.34,0.227,0.681,0.227c0.057,0,0.255-0.029,0.567-0.057V30.723z"/>
		<path fill="#1D1D1E" d="M140.145,26.131c0-0.736-0.057-1.275-0.142-1.588c-0.198-0.623-0.595-0.936-1.19-0.936    c-0.85,0-1.332,0.512-1.445,1.531c-0.057,0.34-0.086,0.68-0.086,0.992H140.145z M141.393,26.983h-4.111v0.51    c0,0.822,0.086,1.389,0.228,1.729c0.198,0.51,0.624,0.766,1.219,0.766c0.907,0,1.36-0.566,1.417-1.729h1.191    c-0.057,1.756-0.936,2.607-2.608,2.607c-1.077,0-1.843-0.369-2.239-1.105c-0.313-0.539-0.453-1.418-0.453-2.637    c0-1.389,0.141-2.381,0.396-2.977c0.396-0.963,1.19-1.418,2.381-1.418c1.134,0,1.871,0.398,2.239,1.248    c0.228,0.51,0.341,1.389,0.341,2.637V26.983z"/>
		<polygon fill="#1D1D1E" points="144.566,30.723 143.348,30.723 143.348,19.499 143.972,19.499 144.566,19.499   "/>
		<path fill="#1D1D1E" d="M60.491,47.195h-1.219l-0.028-0.992c-0.482,0.736-1.134,1.105-1.984,1.105    c-1.389,0-2.069-0.795-2.069-2.411V39.37h1.219v4.989c0,0.652,0.057,1.105,0.142,1.389c0.17,0.427,0.539,0.653,1.105,0.653    c1.021,0,1.531-0.767,1.531-2.269V39.37h1.247v6.094C60.435,46.09,60.435,46.656,60.491,47.195z"/>
		<path fill="#1D1D1E" d="M67.975,47.195h-1.219v-4.992c0-0.68-0.057-1.133-0.142-1.389c-0.17-0.453-0.539-0.68-1.077-0.68    c-0.51,0-0.936,0.254-1.219,0.766c-0.227,0.453-0.368,0.992-0.368,1.586v4.708H62.73v-6.125c0-0.682-0.028-1.248-0.057-1.701    h1.219v1.076c0.425-0.822,1.105-1.246,2.012-1.246c1.389,0,2.069,0.822,2.069,2.438V47.195z"/>
		<path fill="#1D1D1E" d="M74.183,43.366c0-1.076-0.085-1.842-0.227-2.295c-0.227-0.652-0.652-0.965-1.276-0.965    c-0.595,0-1.021,0.34-1.219,1.021c-0.142,0.453-0.227,1.133-0.227,2.068c0,1.022,0.085,1.788,0.255,2.268    c0.198,0.626,0.595,0.966,1.162,0.966c0.652,0,1.105-0.34,1.304-0.993C74.098,45.011,74.183,44.331,74.183,43.366z M75.43,47.195    h-1.19v-0.908c-0.454,0.68-1.077,1.021-1.842,1.021c-0.992,0-1.701-0.455-2.069-1.334c-0.227-0.594-0.34-1.53-0.34-2.806    c0-1.191,0.142-2.098,0.397-2.693c0.397-0.852,1.049-1.275,1.984-1.275c0.793,0,1.389,0.311,1.757,0.906v-4.139h1.247v9.752    C75.373,46.004,75.401,46.486,75.43,47.195z"/>
		<polygon fill="#1D1D1E" points="91.361,47.195 90.057,47.195 90.057,36.959 87.194,47.195 85.72,47.195 82.828,36.959     82.828,47.195 81.638,47.195 81.638,35.967 83.792,35.967 86.513,45.861 89.178,35.967 91.361,35.967   "/>
		<path fill="#1D1D1E" d="M97.682,42.6c0-0.736-0.057-1.275-0.17-1.586c-0.17-0.625-0.566-0.936-1.19-0.936    c-0.851,0-1.333,0.51-1.446,1.529c-0.027,0.342-0.057,0.682-0.057,0.992H97.682z M98.9,43.452h-4.082v0.54    c0,0.793,0.057,1.359,0.228,1.699c0.198,0.513,0.595,0.767,1.19,0.767c0.906,0,1.389-0.567,1.417-1.729h1.22    c-0.086,1.759-0.965,2.608-2.637,2.608c-1.077,0-1.814-0.369-2.239-1.076c-0.284-0.569-0.425-1.448-0.425-2.667    c0-1.389,0.113-2.381,0.367-2.977c0.426-0.936,1.22-1.416,2.41-1.416c1.105,0,1.842,0.424,2.211,1.246    c0.227,0.512,0.34,1.391,0.34,2.637V43.452z"/>
		<path fill="#1D1D1E" d="M104.769,43.366c0-1.076-0.085-1.842-0.228-2.295c-0.227-0.652-0.651-0.965-1.275-0.965    c-0.595,0-1.02,0.34-1.246,1.021c-0.143,0.453-0.199,1.133-0.199,2.068c0,1.022,0.085,1.788,0.256,2.268    c0.197,0.626,0.595,0.966,1.162,0.966c0.651,0,1.076-0.34,1.303-0.993C104.684,45.011,104.769,44.331,104.769,43.366z     M106.016,47.195h-1.19l-0.028-0.908c-0.426,0.68-1.049,1.021-1.814,1.021c-1.02,0-1.701-0.455-2.068-1.334    c-0.228-0.594-0.369-1.53-0.369-2.806c0-1.191,0.142-2.098,0.426-2.693c0.367-0.852,1.049-1.275,1.983-1.275    c0.766,0,1.36,0.311,1.758,0.906v-4.139h1.247v9.752C105.959,46.004,105.987,46.486,106.016,47.195z"/>
		<path fill="#1D1D1E" d="M109.502,47.195h-1.247V39.37h1.247V47.195z M109.559,37.469h-1.36v-1.332h1.36V37.469z"/>
		<polygon fill="#1D1D1E" points="115.568,47.195 111.175,47.195 111.175,46.203 114.236,40.276 111.345,40.276 111.345,39.37     115.54,39.37 115.54,40.333 112.479,46.26 115.568,46.26   "/>
		<path fill="#1D1D1E" d="M118.488,47.195h-1.219V39.37h1.219V47.195z M118.545,37.469h-1.332v-1.332h1.332V37.469z"/>
		<path fill="#1D1D1E" d="M126.057,47.195h-1.247v-4.992c0-0.68-0.028-1.133-0.113-1.389c-0.198-0.453-0.539-0.68-1.077-0.68    c-0.539,0-0.936,0.254-1.219,0.766c-0.256,0.453-0.369,0.992-0.369,1.586v4.708h-1.219v-6.125c0-0.682-0.028-1.248-0.057-1.701    h1.19v1.076c0.454-0.822,1.105-1.246,2.041-1.246c1.36,0,2.069,0.822,2.069,2.438V47.195z"/>
		<path fill="#1D1D1E" d="M132.491,43.139c0-0.936-0.057-1.588-0.17-2.012c-0.198-0.652-0.624-0.992-1.219-0.992    c-0.624,0-1.049,0.34-1.276,0.992c-0.197,0.51-0.283,1.246-0.283,2.238c0,0.965,0.086,1.645,0.199,2.014    c0.227,0.681,0.68,1.021,1.36,1.021c0.624,0,1.049-0.396,1.247-1.19C132.463,44.784,132.491,44.104,132.491,43.139z     M133.768,43.139c0,1.305-0.114,2.241-0.341,2.808c-0.368,0.907-1.049,1.362-2.069,1.362c-0.766,0-1.36-0.285-1.785-0.879v3.713    h-1.22v-8.958c0-0.879,0-1.475-0.057-1.814h1.22v0.936c0.424-0.738,1.076-1.105,1.927-1.105c0.964,0,1.616,0.424,1.984,1.246    C133.653,41.014,133.768,41.92,133.768,43.139z"/>
		<path fill="#1D1D1E" d="M139.012,40.389c-0.114-0.027-0.199-0.027-0.256-0.027c-0.596,0-1.021,0.197-1.332,0.539    c-0.283,0.367-0.426,0.85-0.426,1.445v4.849h-1.247v-6.408c0-0.512-0.028-0.992-0.057-1.418h1.22v1.02    c0.424-0.793,1.076-1.162,1.983-1.162C138.982,39.227,139.012,39.596,139.012,40.389z"/>
		<path fill="#1D1D1E" d="M144.369,44.075v-1.19c0-0.908-0.057-1.504-0.171-1.844c-0.198-0.652-0.624-0.963-1.247-0.963    c-0.68,0-1.134,0.34-1.332,1.02c-0.113,0.34-0.17,0.965-0.17,1.814v1.106c0,0.766,0.057,1.305,0.17,1.615    c0.227,0.569,0.652,0.823,1.275,0.823s1.021-0.254,1.247-0.794C144.283,45.323,144.369,44.784,144.369,44.075z M145.615,43.225    c0,1.446-0.141,2.438-0.481,3.035c-0.397,0.736-1.134,1.076-2.239,1.076c-1.134,0-1.899-0.34-2.268-1.076    c-0.313-0.54-0.453-1.532-0.453-2.921c0-1.332,0.17-2.324,0.481-2.92c0.396-0.822,1.19-1.219,2.324-1.219s1.871,0.367,2.239,1.133    C145.502,40.872,145.615,41.836,145.615,43.225z"/>
		<path fill="#1D1D1E" d="M151.512,43.366c0-1.076-0.057-1.842-0.227-2.295c-0.199-0.652-0.623-0.965-1.248-0.965    c-0.623,0-1.02,0.34-1.246,1.021c-0.143,0.453-0.227,1.133-0.227,2.068c0,1.022,0.084,1.788,0.254,2.268    c0.228,0.626,0.596,0.966,1.162,0.966c0.682,0,1.105-0.34,1.333-0.993C151.455,45.011,151.512,44.331,151.512,43.366z     M152.787,47.195h-1.19l-0.028-0.908c-0.453,0.68-1.049,1.021-1.842,1.021c-0.992,0-1.673-0.455-2.041-1.334    c-0.256-0.594-0.369-1.53-0.369-2.806c0-1.191,0.142-2.098,0.426-2.693c0.368-0.852,1.02-1.275,1.955-1.275    c0.794,0,1.389,0.311,1.786,0.906v-4.139h1.247v9.752C152.73,46.004,152.73,46.486,152.787,47.195z"/>
		<path fill="#1D1D1E" d="M160.328,47.195h-1.22l-0.028-0.992c-0.453,0.736-1.134,1.105-1.955,1.105    c-1.39,0-2.098-0.795-2.098-2.411V39.37h1.219v4.989c0,0.652,0.057,1.105,0.17,1.389c0.17,0.427,0.538,0.653,1.076,0.653    c1.021,0,1.531-0.767,1.531-2.269V39.37h1.248v6.094C160.271,46.09,160.299,46.656,160.328,47.195z"/>
		<path fill="#1D1D1E" d="M163.814,47.195h-1.219V35.967h1.219V47.195z M167.867,47.195h-1.445l-2.551-4.369l2.324-3.457h1.418    l-2.41,3.43L167.867,47.195z"/>
		<path fill="#1D1D1E" d="M172.205,47.195c-0.397,0.027-0.681,0.057-0.907,0.057c-0.709,0-1.19-0.143-1.446-0.455    c-0.198-0.254-0.312-0.766-0.312-1.474v-5.047h-1.162V39.37h1.162v-1.445l1.219-0.539v1.984h1.39v0.906h-1.39v4.905    c0,0.453,0.058,0.737,0.198,0.88c0.113,0.17,0.341,0.227,0.681,0.227c0.057,0,0.255-0.027,0.567-0.057V47.195z"/>
		<path fill="#1D1D1E" d="M177.533,42.6c0-0.736-0.057-1.275-0.141-1.586c-0.199-0.625-0.596-0.936-1.191-0.936    c-0.85,0-1.332,0.51-1.445,1.529c-0.057,0.342-0.057,0.682-0.057,0.992H177.533z M178.781,43.452h-4.082v0.54    c0,0.793,0.057,1.359,0.198,1.699c0.198,0.513,0.624,0.767,1.22,0.767c0.906,0,1.359-0.567,1.416-1.729h1.191    c-0.057,1.759-0.936,2.608-2.607,2.608c-1.078,0-1.844-0.369-2.24-1.076c-0.312-0.569-0.453-1.448-0.453-2.667    c0-1.389,0.142-2.381,0.396-2.977c0.396-0.936,1.191-1.416,2.381-1.416c1.135,0,1.871,0.424,2.24,1.246    c0.227,0.512,0.34,1.391,0.34,2.637V43.452z"/>
	</g>
</g>
</svg>